<svg version="1.1" id="Layer_1" xmlns="http://www.w3.org/2000/svg" xmlns:xlink="http://www.w3.org/1999/xlink" x="0px" y="0px"
	 width="100%" viewBox="0 0 528 448" enable-background="new 0 0 528 448" xml:space="preserve">
<path fill="#000000" opacity="1.000000" stroke="none" 
	d="
M501.454773,186.330475 
	C499.292999,195.319016 497.269409,203.907501 495.147308,212.471558 
	C494.285187,215.950928 493.085083,219.454330 488.861053,219.964600 
	C484.605011,220.478729 482.690582,217.245682 481.015106,214.119766 
	C475.034393,202.961456 469.133789,191.760162 463.208130,180.572357 
	C458.929504,172.494202 454.291931,170.500122 445.534363,173.468658 
	C404.534943,187.366272 363.551086,201.310318 322.591003,215.323486 
	C311.406891,219.149765 300.276489,223.145248 289.205780,227.288452 
	C267.977142,235.233276 246.941635,234.078552 225.594849,227.329727 
	C178.132584,212.324509 130.533920,197.750229 82.974663,183.052719 
	C65.478165,177.645706 47.936684,172.384216 30.414236,167.061249 
	C26.035587,165.731110 22.407515,163.632568 21.725220,158.550934 
	C20.934643,152.662827 23.161325,148.698349 29.216452,146.676895 
	C40.588242,142.880463 52.078442,139.438416 63.522068,135.857513 
	C114.210564,119.996201 164.865143,104.024925 215.617065,88.369194 
	C226.404541,85.041519 237.168274,81.491539 248.402283,79.663361 
	C263.298431,77.239235 277.561218,80.094612 291.713074,84.203911 
	C346.082825,99.991333 400.242218,116.475807 454.292175,133.323135 
	C468.759491,137.832581 483.301758,142.102066 497.759247,146.642090 
	C506.279633,149.317703 508.846283,153.910446 506.936829,162.591675 
	C505.222504,170.385620 503.353882,178.145615 501.454773,186.330475 
z"/>
<path fill="#000000" opacity="1.000000" stroke="none" 
	d="
M148.363739,227.577850 
	C178.029861,238.747513 207.655090,249.036530 236.070953,262.211700 
	C251.965195,269.581207 266.769287,269.368347 282.552551,262.187103 
	C311.059235,249.216873 340.272675,237.903275 369.709351,227.197144 
	C383.639923,222.130569 397.565460,217.047485 411.547760,212.126816 
	C420.641022,208.926697 426.232300,212.997299 426.241577,222.691559 
	C426.297668,281.354675 426.282532,340.017883 426.415619,398.680786 
	C426.428497,404.354095 424.004913,407.696350 418.892578,409.677460 
	C400.418701,416.836426 381.993958,424.121948 363.521790,431.285339 
	C355.941498,434.224915 352.755676,431.812500 352.591705,423.562286 
	C351.816772,384.574341 351.568817,345.583008 351.633026,306.588409 
	C351.643188,300.417511 350.300568,299.589905 344.336212,302.103180 
	C323.617310,310.833710 303.226746,320.313843 282.370636,328.748047 
	C265.907166,335.405853 250.077423,334.800659 233.955841,327.781097 
	C214.412918,319.271912 194.680527,311.194489 174.974701,303.064575 
	C167.792725,300.101562 167.347931,300.535309 167.285629,308.114532 
	C166.969269,346.605133 166.647385,385.095703 166.316010,423.586182 
	C166.250824,431.158752 162.014404,434.367096 155.464706,431.424347 
	C137.669357,423.429077 119.070786,417.521118 101.013252,410.211426 
	C92.726166,406.856842 91.633484,405.542542 91.633858,396.564026 
	C91.636261,338.734161 91.847519,280.902924 91.463600,223.075638 
	C91.393456,212.509567 98.575806,209.215973 106.679062,212.436996 
	C120.289864,217.847290 134.204514,222.493195 148.363739,227.577850 
z"/>
</svg>